<svg xmlns="http://www.w3.org/2000/svg" viewBox="0 0 512 512" style="height: 512px; width: 512px;"><defs><filter id="shadow-1" height="300%" width="300%" x="-100%" y="-100%"><feFlood flood-color="rgba(74, 74, 74, 1)" result="flood"></feFlood><feComposite in="flood" in2="SourceGraphic" operator="atop" result="composite"></feComposite><feGaussianBlur in="composite" stdDeviation="9" result="blur"></feGaussianBlur><feOffset dx="7" dy="7" result="offset"></feOffset><feComposite in="SourceGraphic" in2="offset" operator="over"></feComposite></filter><linearGradient x1="0" x2="1" y1="1" y2="0" id="delapouite-door-gradient-1"><stop offset="0%" stop-color="#000000" stop-opacity="1"></stop><stop offset="100%" stop-color="#000000" stop-opacity="1"></stop></linearGradient></defs><path d="M0 0h512v512H0z" fill="#000000" fill-opacity="0.01"></path><g class="" transform="translate(0,0)" style=""><path d="M105 41v398h302V41H105zm55 174c18.1 0 33 14.9 33 33s-14.9 33-33 33-33-14.9-33-33 14.9-33 33-33zm0 18c-8.4 0-15 6.6-15 15s6.6 15 15 15 15-6.6 15-15-6.6-15-15-15zM73 457v30h366v-30H73z" fill="url(#delapouite-door-gradient-1)" filter="url(#shadow-1)"></path></g></svg>