<svg xmlns="http://www.w3.org/2000/svg" viewBox="0 0 512 512" style="height: 512px; width: 512px;"><defs><filter id="shadow-1" height="300%" width="300%" x="-100%" y="-100%"><feFlood flood-color="rgba(74, 74, 74, 1)" result="flood"></feFlood><feComposite in="flood" in2="SourceGraphic" operator="atop" result="composite"></feComposite><feGaussianBlur in="composite" stdDeviation="9" result="blur"></feGaussianBlur><feOffset dx="7" dy="7" result="offset"></feOffset><feComposite in="SourceGraphic" in2="offset" operator="over"></feComposite></filter><radialGradient id="delapouite-yin-yang-gradient-1"><stop offset="0%" stop-color="#daa520" stop-opacity="1"></stop><stop offset="100%" stop-color="#daa520" stop-opacity="0.7"></stop></radialGradient></defs><path d="M0 0h512v512H0z" fill="#000000" fill-opacity="0.01"></path><g class="" transform="translate(0,0)" style=""><path d="M256 23C127.424 23 23 127.424 23 256s104.424 233 233 233 233-104.424 233-233S384.576 23 256 23zm-6.094 18.09C128.036 47.807 130.066 256 256 256c125.215 0 127.935 205.872 8.168 214.83-2.71.1-5.432.17-8.168.17-118.848 0-215-96.152-215-215 0-116.81 92.883-211.69 208.906-214.91zM256 103c22.537 0 41 18.463 41 41s-18.463 41-41 41-41-18.463-41-41 18.463-41 41-41zm0 224c-22.537 0-41 18.463-41 41s18.463 41 41 41 41-18.463 41-41-18.463-41-41-41z" fill="url(#delapouite-yin-yang-gradient-1)" filter="url(#shadow-1)"></path></g></svg>