<svg xmlns="http://www.w3.org/2000/svg" viewBox="0 0 512 512" style="height: 512px; width: 512px;"><defs><filter id="shadow-1" height="300%" width="300%" x="-100%" y="-100%"><feFlood flood-color="rgba(74, 74, 74, 1)" result="flood"></feFlood><feComposite in="flood" in2="SourceGraphic" operator="atop" result="composite"></feComposite><feGaussianBlur in="composite" stdDeviation="9" result="blur"></feGaussianBlur><feOffset dx="7" dy="7" result="offset"></feOffset><feComposite in="SourceGraphic" in2="offset" operator="over"></feComposite></filter><linearGradient x1="0" x2="1" y1="1" y2="0" id="delapouite-open-gate-gradient-1"><stop offset="0%" stop-color="#000000" stop-opacity="1"></stop><stop offset="100%" stop-color="#000000" stop-opacity="1"></stop></linearGradient></defs><path d="M0 0h512v512H0z" fill="#000000" fill-opacity="0.01"></path><g class="" transform="translate(0,0)" style=""><path d="M192 64c-15.4 3.77-35.7 16.04-53 33.17-19.2 19.13-34.9 43.63-39.58 64.63l-.58 135.3.37 157.4 93.99-40.3L192 64zm128 0l-1.2 350.2 94 40.3.4-156.8-.6-135.9c-4.7-21-20.3-45.5-39.6-64.63-17.3-17.13-37.6-29.4-53-33.17zM57.24 94.67c-8.39 0-15 6.63-15 15.03 0 8.4 6.61 15 15 15s15-6.6 15-15-6.61-15.03-15-15.03zm397.56 0c-8.4 0-15 6.63-15 15.03 0 8.4 6.6 15 15 15s15-6.6 15-15-6.6-15.03-15-15.03zM35.5 142.7l-1.42 334h46l1.42-334h-46zm395 0l1.5 334h46l-1.5-334h-46zM159.2 231h18v48h-18v-48zm175.6 0h18v48h-18v-48z" fill="url(#delapouite-open-gate-gradient-1)" filter="url(#shadow-1)"></path></g></svg>